<svg width="100%" height="100%" viewBox="0 0 316 62" fill="none" xmlns="http://www.w3.org/2000/svg">
<path d="M38.3907 49.66L31.3107 34.54L7.5507 38.68L1.3107 49.66H0.410703L16.7907 2.26L26.2707 0.819998L45.4707 48.88L38.3907 49.66ZM21.5307 13.66L12.2307 30.28L30.5907 33.1L21.5307 13.66ZM73.0679 49L72.1079 28.42C71.9879 25.78 71.6279 24.04 71.0279 23.2C70.4679 22.32 69.5679 21.88 68.3279 21.88C67.3679 21.88 66.0279 22.14 64.3079 22.66C62.5879 23.14 60.9079 23.9 59.2679 24.94L58.1279 49H50.7479L49.1879 15.58H59.6879L59.3879 21.94C60.6279 20.54 62.0479 19.3 63.6479 18.22C65.2879 17.14 66.9879 16.3 68.7479 15.7C70.5079 15.1 72.1879 14.8 73.7879 14.8C76.7879 14.8 78.8279 15.62 79.9079 17.26C80.9879 18.86 81.5279 21.2 81.5279 24.28C81.5279 24.56 81.5079 24.84 81.4679 25.12C81.4679 25.36 81.4679 25.64 81.4679 25.96L80.5079 49H73.0679ZM89.199 1.36L103.779 3.88L93.999 13.72L89.199 1.36ZM91.779 49L90.219 15.58H100.779L99.219 49H91.779Z" fill="#EC790F"/>
<path d="M148.862 49L147.122 13.9L133.742 44.44H133.322L119.882 13.9L114.422 49.84H113.522L110.222 2.2H121.262L135.842 26.44L147.002 2.2H156.782L155.882 49H148.862ZM199.214 44.2C197.374 45.92 195.754 47.28 194.354 48.28C192.954 49.28 191.694 49.78 190.574 49.78C189.694 49.78 188.894 49.44 188.174 48.76C187.494 48.04 186.854 46.9 186.254 45.34C185.014 46.42 183.494 47.34 181.694 48.1C179.894 48.82 177.954 49.3 175.874 49.54C175.234 49.62 174.614 49.68 174.014 49.72C173.414 49.76 172.834 49.78 172.274 49.78C166.634 49.78 163.814 47.76 163.814 43.72C163.814 43.24 163.854 42.74 163.934 42.22C164.014 41.7 164.134 41.14 164.294 40.54C164.654 39.22 165.374 38.04 166.454 37C167.574 35.92 168.914 34.96 170.474 34.12C172.034 33.24 173.634 32.44 175.274 31.72C176.914 30.96 178.434 30.26 179.834 29.62C181.274 28.94 182.434 28.28 183.314 27.64C184.234 27 184.694 26.36 184.694 25.72C184.694 23.96 184.474 22.78 184.034 22.18C183.594 21.54 182.754 21.22 181.514 21.22C180.634 21.22 179.274 21.3 177.434 21.46C175.594 21.62 173.574 21.86 171.374 22.18C169.174 22.5 167.074 22.92 165.074 23.44L164.774 22.84C165.854 21.8 167.234 20.8 168.914 19.84C170.634 18.88 172.454 18.02 174.374 17.26C176.334 16.5 178.274 15.9 180.194 15.46C182.114 15.02 183.854 14.8 185.414 14.8C187.894 14.8 189.734 15.06 190.934 15.58C192.174 16.06 192.994 17.04 193.394 18.52C193.834 19.96 194.054 22.14 194.054 25.06V40.24C194.054 41.68 194.174 42.72 194.414 43.36C194.694 43.96 195.314 44.26 196.274 44.26C196.594 44.26 196.974 44.22 197.414 44.14C197.894 44.06 198.414 43.96 198.974 43.84L199.214 44.2ZM185.174 30.94C184.294 31.7 183.114 32.52 181.634 33.4C180.194 34.24 178.794 35.16 177.434 36.16C176.074 37.12 175.074 38.2 174.434 39.4C173.874 40.52 173.594 41.5 173.594 42.34C173.594 43.14 173.834 43.8 174.314 44.32C174.834 44.84 175.554 45.1 176.474 45.1C176.674 45.1 176.874 45.1 177.074 45.1C177.314 45.06 177.534 45.02 177.734 44.98C178.534 44.78 179.454 44.5 180.494 44.14C181.574 43.78 182.574 43.36 183.494 42.88C184.454 42.4 185.134 41.92 185.534 41.44L185.174 30.94ZM226.291 49L225.331 28.42C225.211 25.78 224.851 24.04 224.251 23.2C223.691 22.32 222.791 21.88 221.551 21.88C220.591 21.88 219.251 22.14 217.531 22.66C215.811 23.14 214.131 23.9 212.491 24.94L211.351 49H203.971L202.411 15.58H212.911L212.611 21.94C213.851 20.54 215.271 19.3 216.871 18.22C218.511 17.14 220.211 16.3 221.971 15.7C223.731 15.1 225.411 14.8 227.011 14.8C230.011 14.8 232.051 15.62 233.131 17.26C234.211 18.86 234.751 21.2 234.751 24.28C234.751 24.56 234.731 24.84 234.691 25.12C234.691 25.36 234.691 25.64 234.691 25.96L233.731 49H226.291ZM260.662 54.58C262.782 54.58 264.202 54.24 264.922 53.56C265.642 52.92 266.002 51.56 266.002 49.48C266.002 49.24 265.982 49.02 265.942 48.82C265.942 48.58 265.942 48.32 265.942 48.04L265.702 42.58C264.142 43.94 262.242 45.06 260.002 45.94C257.802 46.78 255.422 47.2 252.862 47.2C249.462 47.2 246.762 46.32 244.762 44.56C242.802 42.76 241.822 39.88 241.822 35.92C241.822 32.8 242.702 29.96 244.462 27.4C246.222 24.8 248.622 22.56 251.662 20.68C254.742 18.8 258.242 17.36 262.162 16.36C266.122 15.32 270.282 14.8 274.642 14.8L273.502 47.32C273.382 50.92 272.982 53.74 272.302 55.78C271.662 57.86 270.702 59.32 269.422 60.16C268.142 61.04 266.502 61.48 264.502 61.48C263.982 61.48 263.442 61.44 262.882 61.36C262.322 61.32 261.742 61.26 261.142 61.18C258.582 60.82 255.722 59.96 252.562 58.6C249.402 57.28 246.082 55.06 242.602 51.94L242.902 51.46C243.982 51.86 245.282 52.24 246.802 52.6C248.362 53 249.962 53.34 251.602 53.62C253.242 53.9 254.762 54.12 256.162 54.28C257.562 54.44 258.662 54.54 259.462 54.58H260.662ZM264.742 19.18C259.942 20.74 256.422 22.86 254.182 25.54C251.942 28.18 250.822 31.24 250.822 34.72C250.822 37.04 251.282 38.66 252.202 39.58C253.122 40.5 254.462 40.96 256.222 40.96C257.862 40.96 259.422 40.78 260.902 40.42C262.382 40.02 263.922 39.44 265.522 38.68L264.742 19.18ZM315.932 44.2C314.092 45.92 312.472 47.28 311.072 48.28C309.672 49.28 308.412 49.78 307.292 49.78C306.412 49.78 305.612 49.44 304.892 48.76C304.212 48.04 303.572 46.9 302.972 45.34C301.732 46.42 300.212 47.34 298.412 48.1C296.612 48.82 294.672 49.3 292.592 49.54C291.952 49.62 291.332 49.68 290.732 49.72C290.132 49.76 289.552 49.78 288.992 49.78C283.352 49.78 280.532 47.76 280.532 43.72C280.532 43.24 280.572 42.74 280.652 42.22C280.732 41.7 280.852 41.14 281.012 40.54C281.372 39.22 282.092 38.04 283.172 37C284.292 35.92 285.632 34.96 287.192 34.12C288.752 33.24 290.352 32.44 291.992 31.72C293.632 30.96 295.152 30.26 296.552 29.62C297.992 28.94 299.152 28.28 300.032 27.64C300.952 27 301.412 26.36 301.412 25.72C301.412 23.96 301.192 22.78 300.752 22.18C300.312 21.54 299.472 21.22 298.232 21.22C297.352 21.22 295.992 21.3 294.152 21.46C292.312 21.62 290.292 21.86 288.092 22.18C285.892 22.5 283.792 22.92 281.792 23.44L281.492 22.84C282.572 21.8 283.952 20.8 285.632 19.84C287.352 18.88 289.172 18.02 291.092 17.26C293.052 16.5 294.992 15.9 296.912 15.46C298.832 15.02 300.572 14.8 302.132 14.8C304.612 14.8 306.452 15.06 307.652 15.58C308.892 16.06 309.712 17.04 310.112 18.52C310.552 19.96 310.772 22.14 310.772 25.06V40.24C310.772 41.68 310.892 42.72 311.132 43.36C311.412 43.96 312.032 44.26 312.992 44.26C313.312 44.26 313.692 44.22 314.132 44.14C314.612 44.06 315.132 43.96 315.692 43.84L315.932 44.2ZM301.892 30.94C301.012 31.7 299.832 32.52 298.352 33.4C296.912 34.24 295.512 35.16 294.152 36.16C292.792 37.12 291.792 38.2 291.152 39.4C290.592 40.52 290.312 41.5 290.312 42.34C290.312 43.14 290.552 43.8 291.032 44.32C291.552 44.84 292.272 45.1 293.192 45.1C293.392 45.1 293.592 45.1 293.792 45.1C294.032 45.06 294.252 45.02 294.452 44.98C295.252 44.78 296.172 44.5 297.212 44.14C298.292 43.78 299.292 43.36 300.212 42.88C301.172 42.4 301.852 41.92 302.252 41.44L301.892 30.94Z" fill="black"/>
</svg>
